<svg xmlns="http://www.w3.org/2000/svg" viewBox="0 0 60 60" style="enable-background:new 0 0 60 60" xml:space="preserve" fill="#f80"><path d="M38.914 0H6.5v60h47V14.586L38.914 0zM24.125 41.781l-5 4a.999.999 0 0 1-1.333-.074l-2-2a.999.999 0 1 1 1.414-1.414l1.367 1.367 4.301-3.441a1 1 0 0 1 1.251 1.562zm0-11-5 4a.999.999 0 0 1-1.333-.074l-2-2a.999.999 0 1 1 1.414-1.414l1.367 1.367 4.301-3.441a1 1 0 0 1 1.251 1.562zm0-11-5 4a.999.999 0 0 1-1.333-.074l-2-2a.999.999 0 1 1 1.414-1.414l1.367 1.367 4.301-3.441a1 1 0 0 1 1.251 1.562zM42.5 45h-16a1 1 0 1 1 0-2h16a1 1 0 1 1 0 2zm0-11h-16a1 1 0 1 1 0-2h16a1 1 0 1 1 0 2zm0-11h-16a1 1 0 1 1 0-2h16a1 1 0 1 1 0 2zm-5-7V2l14 14h-14z"/></svg>